{
  "accessors": [
    {
      "bufferView": 2,
      "componentType": 5126,
      "count": 35880,
      "max": [
        2.690037965774536,
        1.7272800207138062,
        2.302150011062622
      ],
      "min": [
        2.502549886703491,
        1.539281964302063,
        1.9938989877700806
      ],
      "type": "VEC3"
    },
    {
      "bufferView": 2,
      "byteOffset": 430560,
      "componentType": 5126,
      "count": 35880,
      "max": [
        0.9999976754188538,
        0.9999869465827942,
        0.9996280670166016
      ],
      "min": [
        -0.99995356798172,
        -0.9999393224716187,
        -0.999977707862854
      ],
      "type": "VEC3"
    },
    {
      "bufferView": 3,
      "componentType": 5126,
      "count": 35880,
      "max": [
        0.999970555305481,
        0.9998326897621155,
        0.9999799132347107,
        1.0
      ],
      "min": [
        -0.9997130632400513,
        -0.9999358057975769,
        -0.999999463558197,
        -1.0
      ],
      "type": "VEC4"
    },
    {
      "bufferView": 3,
      "byteOffset": 574080,
      "componentType": 5126,
      "count": 35880,
      "max": [
        0.7882353067398071,
        0.7921568751335144,
        0.7803921699523926,
        1.0
      ],
      "min": [
        0.0117647061124444,
        0.007843137718737125,
        0.0117647061124444,
        1.0
      ],
      "type": "VEC4"
    },
    {
      "bufferView": 1,
      "componentType": 5126,
      "count": 35880,
      "max": [
        0.9426419734954834,
        0.9999979734420776
      ],
      "min": [
        0.0002840000088326633,
        0.00013800000306218863
      ],
      "type": "VEC2"
    },
    {
      "bufferView": 0,
      "componentType": 5125,
      "count": 192000,
      "type": "SCALAR"
    }
  ],
  "asset": {
    "extras": {
      "author": "Minneapolis Institute of Art (https://sketchfab.com/artsmia)",
      "license": "CC0-1.0 (http://creativecommons.org/publicdomain/zero/1.0/)",
      "source": "https://sketchfab.com/3d-models/head-of-the-buddha-12th-13th-c-ce-d1963b3475e24071b338b1ca782f4d82",
      "title": "Head of the Buddha, 12th - 13th C CE"
    },
    "generator": "Sketchfab-12.63.0",
    "version": "2.0"
  },
  "bufferViews": [
    {
      "buffer": 0,
      "byteLength": 768000,
      "name": "floatBufferViews",
      "target": 34963
    },
    {
      "buffer": 0,
      "byteLength": 287040,
      "byteOffset": 768000,
      "byteStride": 8,
      "name": "floatBufferViews",
      "target": 34962
    },
    {
      "buffer": 0,
      "byteLength": 861120,
      "byteOffset": 1055040,
      "byteStride": 12,
      "name": "floatBufferViews",
      "target": 34962
    },
    {
      "buffer": 0,
      "byteLength": 1148160,
      "byteOffset": 1916160,
      "byteStride": 16,
      "name": "floatBufferViews",
      "target": 34962
    }
  ],
  "buffers": [
    {
      "byteLength": 3064320,
      "uri": "scene.bin"
    }
  ],
  "images": [
    {
      "uri": "textures/191024_mia337_000889_KhmerBuddha_baseColor.jpeg"
    },
    {
      "uri": "textures/191024_mia337_000889_KhmerBuddha_metallicRoughness.png"
    },
    {
      "uri": "textures/191024_mia337_000889_KhmerBuddha_normal.png"
    }
  ],
  "materials": [
    {
      "doubleSided": true,
      "name": "191024_mia337_000889_KhmerBuddha",
      "normalTexture": {
        "index": 2
      },
      "occlusionTexture": {
        "index": 1
      },
      "pbrMetallicRoughness": {
        "baseColorTexture": {
          "index": 0
        },
        "metallicFactor": 0.0,
        "metallicRoughnessTexture": {
          "index": 1
        }
      }
    }
  ],
  "meshes": [
    {
      "name": "Object_0",
      "primitives": [
        {
          "attributes": {
            "COLOR_0": 3,
            "NORMAL": 1,
            "POSITION": 0,
            "TANGENT": 2,
            "TEXCOORD_0": 4
          },
          "indices": 5,
          "material": 0,
          "mode": 4
        }
      ]
    }
  ],
  "nodes": [
    {
      "children": [
        1
      ],
      "matrix": [
        1.0,
        0.0,
        0.0,
        0.0,
        0.0,
        2.220446049250313e-16,
        -1.0,
        0.0,
        0.0,
        1.0,
        2.220446049250313e-16,
        0.0,
        0.0,
        0.0,
        0.0,
        1.0
      ],
      "name": "Sketchfab_model"
    },
    {
      "children": [
        2
      ],
      "name": "191024_mia337_000889_KhmerBuddha.obj.cleaner.materialmerger.gles"
    },
    {
      "mesh": 0,
      "name": "Object_2"
    }
  ],
  "samplers": [
    {
      "magFilter": 9729,
      "minFilter": 9987,
      "wrapS": 10497,
      "wrapT": 10497
    }
  ],
  "scene": 0,
  "scenes": [
    {
      "name": "Sketchfab_Scene",
      "nodes": [
        0
      ]
    }
  ],
  "textures": [
    {
      "sampler": 0,
      "source": 0
    },
    {
      "sampler": 0,
      "source": 1
    },
    {
      "sampler": 0,
      "source": 2
    }
  ]
}
